<svg width="26" height="22" viewBox="0 0 26 22" fill="none" xmlns="http://www.w3.org/2000/svg">
<path d="M23.9346 9.37696H5.23094L10.9556 2.56446C11.2233 2.24537 11.352 1.83399 11.3136 1.42083C11.2752 1.00766 11.0726 0.626548 10.7506 0.361332C10.4285 0.0961151 10.0133 -0.0314816 9.59629 0.00661172C9.17929 0.044705 8.79463 0.245368 8.52694 0.564457L0.641771 9.93946C0.58872 10.014 0.541281 10.0924 0.499837 10.1738C0.499837 10.252 0.499838 10.2988 0.389445 10.377C0.317964 10.5561 0.280537 10.7468 0.279053 10.9395C0.280537 11.1321 0.317964 11.3228 0.389445 11.502C0.389445 11.5801 0.389445 11.627 0.499837 11.7051C0.541281 11.7866 0.58872 11.8649 0.641771 11.9395L8.52694 21.3145C8.67522 21.4908 8.8609 21.6327 9.07078 21.7299C9.28066 21.8271 9.50958 21.8773 9.74126 21.877C10.1097 21.8777 10.4668 21.7505 10.7506 21.5176C10.9103 21.3864 11.0423 21.2253 11.139 21.0435C11.2358 20.8617 11.2954 20.6628 11.3144 20.4582C11.3335 20.2535 11.3116 20.0471 11.25 19.8509C11.1884 19.6546 11.0884 19.4723 10.9556 19.3145L5.23094 12.502H23.9346C24.3528 12.502 24.754 12.3373 25.0497 12.0443C25.3455 11.7513 25.5116 11.3539 25.5116 10.9395C25.5116 10.5251 25.3455 10.1276 25.0497 9.8346C24.754 9.54158 24.3528 9.37696 23.9346 9.37696Z" fill="white"/>
</svg>
