<svg width="30" height="30" viewBox="0 0 30 30" fill="none" xmlns="http://www.w3.org/2000/svg">
<path d="M28.2197 19.8103L25.4217 17.0955V10.4059C25.4589 7.9218 24.5634 5.50858 22.9005 3.61183C21.2377 1.71509 18.9198 0.46292 16.3748 0.0865403C14.8977 -0.101148 13.3962 0.0172668 11.9704 0.433883C10.5446 0.850498 9.22719 1.55573 8.10621 2.50254C6.98522 3.44934 6.08639 4.61593 5.46968 5.92448C4.85297 7.23303 4.53256 8.65344 4.52984 10.0909V17.0955L1.73183 19.8103C1.38038 20.1551 1.14204 20.5922 1.04663 21.067C0.95121 21.5417 1.00294 22.0331 1.19535 22.4796C1.38777 22.9262 1.71232 23.3081 2.12845 23.5776C2.54458 23.8472 3.03381 23.9924 3.53499 23.9951H8.75795V24.5051C8.83056 26.0278 9.52577 27.4606 10.6913 28.4896C11.8567 29.5186 13.3974 30.0599 14.9758 29.9947C16.5541 30.0599 18.0948 29.5186 19.2603 28.4896C20.4257 27.4606 21.121 26.0278 21.1936 24.5051V23.9951H26.4165C26.9177 23.9924 27.4069 23.8472 27.8231 23.5776C28.2392 23.3081 28.5637 22.9262 28.7562 22.4796C28.9486 22.0331 29.0003 21.5417 28.9049 21.067C28.8095 20.5922 28.5711 20.1551 28.2197 19.8103V19.8103ZM18.0847 24.5051C17.9985 25.2265 17.6271 25.8881 17.048 26.3519C16.4688 26.8157 15.7265 27.0461 14.9758 26.9949C14.225 27.0461 13.4827 26.8157 12.9036 26.3519C12.3244 25.8881 11.9531 25.2265 11.8669 24.5051V23.9951H18.0847V24.5051ZM4.88737 20.9953L6.72162 19.2254C7.01256 18.9463 7.24339 18.6144 7.40079 18.2489C7.5582 17.8833 7.63907 17.4914 7.63874 17.0955V10.0909C7.63959 9.0791 7.86474 8.07914 8.29907 7.15818C8.7334 6.23721 9.36686 5.41655 10.157 4.75126C10.9364 4.06982 11.86 3.55996 12.8638 3.25695C13.8676 2.95394 14.9277 2.86503 15.9706 2.99636C17.7683 3.27801 19.4 4.17681 20.5654 5.52728C21.7308 6.87775 22.3513 8.58898 22.3128 10.3459V17.0955C22.3104 17.4903 22.3888 17.8817 22.5435 18.2472C22.6983 18.6127 22.9262 18.9451 23.2143 19.2254L25.0641 20.9953H4.88737Z" fill="#C9D6DF"/>
</svg>
