<svg width="40" height="40" viewBox="0 0 40 40" fill="none" xmlns="http://www.w3.org/2000/svg">
<path d="M14.6154 35.7839C14.2735 35.7828 13.9355 35.7096 13.6223 35.5689C13.3091 35.4282 13.0276 35.223 12.7951 34.966L0.675934 21.7516C0.222905 21.2567 -0.0197814 20.5977 0.00126282 19.9194C0.022307 19.2411 0.305358 18.5992 0.788148 18.1348C1.27094 17.6705 1.91392 17.4217 2.57564 17.4433C3.23737 17.4649 3.86363 17.755 4.31666 18.2499L14.5905 29.4707L35.562 5.95557C35.7749 5.68393 36.0396 5.45975 36.34 5.2968C36.6405 5.13385 36.9702 5.03558 37.3091 5.00801C37.6479 4.98045 37.9886 5.02418 38.3104 5.13651C38.6321 5.24884 38.9281 5.42741 39.18 5.66124C39.432 5.89507 39.6347 6.17923 39.7756 6.49627C39.9165 6.81331 39.9927 7.15653 39.9995 7.50485C40.0063 7.85318 39.9436 8.19925 39.8151 8.52181C39.6867 8.84437 39.4953 9.13662 39.2526 9.38059L16.4607 34.9405C16.2304 35.2021 15.9498 35.4121 15.6365 35.5572C15.3233 35.7024 14.9841 35.7796 14.6404 35.7839H14.6154Z" fill="#C9D6DF"/>
</svg>
