<svg width="30" height="30" viewBox="0 0 30 30" fill="none" xmlns="http://www.w3.org/2000/svg">
<path d="M15 0C12.0333 0 9.13319 0.879735 6.66645 2.52796C4.19972 4.17618 2.27713 6.51886 1.14181 9.25975C0.00649928 12.0006 -0.290551 15.0166 0.288228 17.9264C0.867006 20.8361 2.29562 23.5088 4.3934 25.6066C6.49119 27.7044 9.16394 29.133 12.0737 29.7118C14.9834 30.2906 17.9994 29.9935 20.7403 28.8582C23.4811 27.7229 25.8238 25.8003 27.472 23.3335C29.1203 20.8668 30 17.9667 30 15C30 13.0302 29.612 11.0796 28.8582 9.25975C28.1044 7.43986 26.9995 5.78628 25.6066 4.3934C24.2137 3.00052 22.5601 1.89563 20.7403 1.14181C18.9204 0.387986 16.9698 0 15 0ZM15 27C12.6266 27 10.3066 26.2962 8.33316 24.9776C6.35977 23.6591 4.8217 21.7849 3.91345 19.5922C3.0052 17.3995 2.76756 14.9867 3.23058 12.6589C3.69361 10.3311 4.83649 8.19295 6.51472 6.51472C8.19295 4.83649 10.3311 3.6936 12.6589 3.23058C14.9867 2.76755 17.3995 3.00519 19.5922 3.91345C21.7849 4.8217 23.6591 6.35977 24.9776 8.33316C26.2962 10.3065 27 12.6266 27 15C27 18.1826 25.7357 21.2348 23.4853 23.4853C21.2348 25.7357 18.1826 27 15 27Z" fill="#C9D6DF"/>
<path d="M15 22.4999C15.8284 22.4999 16.5 21.8283 16.5 20.9999C16.5 20.1715 15.8284 19.4999 15 19.4999C14.1716 19.4999 13.5 20.1715 13.5 20.9999C13.5 21.8283 14.1716 22.4999 15 22.4999Z" fill="#C9D6DF"/>
<path d="M15 7.49981C14.6022 7.49981 14.2206 7.65785 13.9393 7.93916C13.658 8.22046 13.5 8.60199 13.5 8.99981V16.4998C13.5 16.8976 13.658 17.2792 13.9393 17.5605C14.2206 17.8418 14.6022 17.9998 15 17.9998C15.3978 17.9998 15.7794 17.8418 16.0607 17.5605C16.342 17.2792 16.5 16.8976 16.5 16.4998V8.99981C16.5 8.60199 16.342 8.22046 16.0607 7.93916C15.7794 7.65785 15.3978 7.49981 15 7.49981Z" fill="#C9D6DF"/>
</svg>
