<svg width="30" height="30" viewBox="0 0 30 30" fill="none" xmlns="http://www.w3.org/2000/svg">
<path d="M28.0978 12.2663L16.1045 0.443791C15.9599 0.303168 15.7879 0.191554 15.5983 0.115385C15.4088 0.0392156 15.2054 0 15.0001 0C14.7947 0 14.5914 0.0392156 14.4019 0.115385C14.2123 0.191554 14.0403 0.303168 13.8957 0.443791L1.9024 12.2813C1.61219 12.5634 1.38299 12.8984 1.22811 13.2667C1.07323 13.635 0.995754 14.0293 1.00018 14.4267V26.9994C0.998974 27.7674 1.30316 28.5066 1.85009 29.0649C2.39702 29.6231 3.14506 29.9578 3.94016 30H8.77791V16.4972C8.77791 16.0993 8.94179 15.7176 9.23352 15.4363C9.52524 15.1549 9.9209 14.9968 10.3335 14.9968H19.6667C20.0793 14.9968 20.4749 15.1549 20.7667 15.4363C21.0584 15.7176 21.2223 16.0993 21.2223 16.4972V30H26.06C26.8551 29.9578 27.6032 29.6231 28.1501 29.0649C28.697 28.5066 29.0012 27.7674 29 26.9994V14.4267C29.0012 13.621 28.6777 12.8463 28.0978 12.2663Z" fill="#C9D6DF"/>
</svg>
