<svg width="40" height="40" viewBox="0 0 40 40" fill="none" xmlns="http://www.w3.org/2000/svg">
<path d="M36.1053 8.68419H34.2105V6.78945C34.2105 6.28694 34.0109 5.805 33.6556 5.44967C33.3002 5.09434 32.8183 4.89471 32.3158 4.89471C31.8133 4.89471 31.3313 5.09434 30.976 5.44967C30.6207 5.805 30.4211 6.28694 30.4211 6.78945V8.68419H28.5263C28.0238 8.68419 27.5419 8.88381 27.1865 9.23914C26.8312 9.59448 26.6316 10.0764 26.6316 10.5789C26.6316 11.0814 26.8312 11.5634 27.1865 11.9187C27.5419 12.274 28.0238 12.4737 28.5263 12.4737H30.4211V14.3684C30.4211 14.8709 30.6207 15.3528 30.976 15.7082C31.3313 16.0635 31.8133 16.2631 32.3158 16.2631C32.8183 16.2631 33.3002 16.0635 33.6556 15.7082C34.0109 15.3528 34.2105 14.8709 34.2105 14.3684V12.4737H36.1053C36.6078 12.4737 37.0897 12.274 37.445 11.9187C37.8004 11.5634 38 11.0814 38 10.5789C38 10.0764 37.8004 9.59448 37.445 9.23914C37.0897 8.88381 36.6078 8.68419 36.1053 8.68419Z" fill="#C9D6DF"/>
<path d="M15.2632 18.1579C16.7621 18.1579 18.2274 17.7134 19.4738 16.8806C20.7201 16.0478 21.6916 14.8642 22.2652 13.4793C22.8388 12.0944 22.9889 10.5705 22.6965 9.10037C22.404 7.6302 21.6822 6.27976 20.6223 5.21983C19.5623 4.15989 18.2119 3.43807 16.7417 3.14563C15.2716 2.8532 13.7477 3.00328 12.3628 3.57692C10.9779 4.15055 9.79427 5.12196 8.96149 6.36831C8.1287 7.61466 7.6842 9.07998 7.6842 10.579C7.6842 12.589 8.4827 14.5167 9.90403 15.9381C11.3254 17.3594 13.2531 18.1579 15.2632 18.1579Z" fill="#C9D6DF"/>
<path d="M26.6316 37.1053C27.1341 37.1053 27.616 36.9056 27.9714 36.5503C28.3267 36.195 28.5263 35.713 28.5263 35.2105C28.5263 31.6929 27.129 28.3194 24.6416 25.832C22.1543 23.3447 18.7808 21.9474 15.2632 21.9474C11.7456 21.9474 8.37201 23.3447 5.88469 25.832C3.39736 28.3194 2 31.6929 2 35.2105C2 35.713 2.19962 36.195 2.55496 36.5503C2.91029 36.9056 3.39222 37.1053 3.89474 37.1053" fill="#C9D6DF"/>
</svg>
