<svg width="337" height="83" viewBox="0 0 337 83" fill="none" xmlns="http://www.w3.org/2000/svg">
<path d="M82.6938 18.655V23.5523H91.0688V27.3275H82.6938V32.2247H91.9999V35.9999H78.7532V14.8799H91.9999V18.655H82.6938Z" fill="white"/>
<path d="M62.8572 14.8799H76.1039V18.6542H66.7978V23.788H75.1728V27.5623H66.7978V35.9999H62.8572V14.8799Z" fill="white"/>
<path d="M47.7938 14.8799H52.3149L60.2078 35.9999H55.8333L54.1025 30.9564H46.0014L44.2706 35.9999H39.8961L47.7891 14.8799H47.7938ZM52.8114 27.2961L50.9339 22.015L50.1726 19.448H49.9361L49.1747 22.015L47.2972 27.2961H52.8161H52.8114Z" fill="white"/>
<path d="M31.8255 36C30.9276 36 30.0676 35.872 29.2453 35.6161C28.4231 35.3602 27.6717 34.981 26.9865 34.4692C26.3013 33.9573 25.7059 33.3365 25.2003 32.6019C24.6899 31.8673 24.293 31.0095 24 30.0284L27.7237 28.5592C27.9978 29.6161 28.4751 30.4976 29.1603 31.1896C29.8455 31.8863 30.7433 32.2322 31.8585 32.2322C32.2697 32.2322 32.6666 32.1801 33.0447 32.0711C33.4274 31.9621 33.7677 31.8057 34.0701 31.6019C34.3725 31.3981 34.6135 31.1374 34.7884 30.8246C34.9632 30.5118 35.053 30.1469 35.053 29.7346C35.053 29.3223 34.9821 28.9905 34.8498 28.6777C34.7128 28.3649 34.4812 28.0711 34.1599 27.7962C33.8385 27.5213 33.418 27.2559 32.8982 27C32.3784 26.7441 31.7404 26.4787 30.9796 26.2038L29.6895 25.7346C29.1225 25.5403 28.5507 25.2749 27.9742 24.9384C27.3977 24.6066 26.8731 24.2038 26.4053 23.7346C25.9375 23.2654 25.55 22.7109 25.2475 22.0711C24.9451 21.436 24.7939 20.7156 24.7939 19.91C24.7939 19.1043 24.9546 18.3175 25.2759 17.6019C25.5972 16.8863 26.0556 16.2607 26.6557 15.7204C27.2512 15.1801 27.9647 14.7583 28.7964 14.455C29.6281 14.1517 30.5496 14 31.5656 14C32.5815 14 33.5361 14.1422 34.3064 14.4265C35.0766 14.7109 35.7335 15.0711 36.2722 15.5166C36.8109 15.9573 37.2456 16.4408 37.5764 16.9716C37.9072 17.5024 38.1529 18 38.3089 18.4692L34.8214 19.9384C34.6277 19.3507 34.2686 18.8199 33.7488 18.3507C33.2289 17.8815 32.5201 17.6445 31.6223 17.6445C30.7244 17.6445 30.0487 17.8436 29.4816 18.2464C28.9145 18.6493 28.631 19.1706 28.631 19.8199C28.631 20.4692 28.9051 20.981 29.4533 21.4218C30.0014 21.8626 30.8709 22.2891 32.0617 22.7014L33.3802 23.1422C34.2213 23.436 34.9868 23.7725 35.6815 24.1564C36.3761 24.5403 36.9716 24.9953 37.4725 25.5261C37.9686 26.0569 38.3514 26.6588 38.616 27.3365C38.8807 28.0142 39.013 28.7915 39.013 29.673C39.013 30.7725 38.7909 31.7156 38.3514 32.5118C37.9119 33.3081 37.3496 33.9573 36.6644 34.4692C35.9792 34.981 35.2089 35.3602 34.3489 35.6161C33.4888 35.872 32.6477 36 31.8255 36Z" fill="white"/>
<path d="M83.569 61.5256V44.2316H77.9364V40.4668H93V44.2316H87.3673V61.5256H83.569Z" fill="white"/>
<path d="M61.8292 40.46H69.1795C70.1907 40.46 71.1111 40.6292 71.9407 40.961C72.7639 41.2928 73.4769 41.7533 74.0668 42.3424C74.6566 42.9315 75.1103 43.6289 75.4344 44.4483C75.752 45.2608 75.914 46.1479 75.914 47.1094C75.914 47.8136 75.8039 48.4772 75.577 49.0934C75.3501 49.7096 75.039 50.2716 74.6501 50.7727C74.2547 51.2738 73.7945 51.7139 73.2695 52.0931C72.7445 52.479 72.187 52.777 71.6102 52.9937L71.5842 53.1968L76.99 61.2885V61.5255H72.6278L67.4165 53.6099H65.6405V61.5255H61.8422V40.4667L61.8292 40.46ZM69.1471 49.9601C70.0092 49.9601 70.7222 49.6825 71.2731 49.134C71.8241 48.5855 72.1028 47.8881 72.1028 47.0485C72.1028 46.676 72.0444 46.3104 71.9213 45.9583C71.7981 45.6062 71.6167 45.2947 71.3703 45.0171C71.124 44.7394 70.8194 44.5227 70.4564 44.3535C70.0934 44.1842 69.6721 44.1029 69.2054 44.1029H65.6275V49.9601H69.1471Z" fill="white"/>
<path d="M47.8733 40.46H52.3949L60.2958 61.58H55.9229L54.1927 56.5342H46.089L44.3587 61.58H39.9858L47.8868 40.46H47.8733ZM52.895 52.8807L51.0161 47.5973L50.2524 45.0303H50.0158L49.2521 47.5973L47.3731 52.8807H52.895Z" fill="white"/>
<path d="M18.0065 40H21.7379L27.8773 51.3791H28.1033L34.2427 40H38V61.5H34.2427V50.9021L34.4687 47.3003H34.2427L29.1362 56.9373H26.8638L21.7314 47.3003H21.5055L21.7314 50.9021V61.5H18V40H18.0065Z" fill="white"/>
<path d="M7.817 61.9932C6.91996 61.9932 6.05665 61.8646 5.24056 61.614C4.41771 61.3567 3.66906 60.9775 2.98786 60.4629C2.30665 59.9551 1.70638 59.3321 1.20054 58.594C0.694694 57.856 0.290018 57.0028 0 56.0209L3.72302 54.5516C3.99955 55.6079 4.47167 56.4882 5.15962 57.1856C5.84083 57.883 6.7446 58.2284 7.85746 58.2284C8.26888 58.2284 8.66007 58.1742 9.04451 58.0659C9.42221 57.9575 9.76619 57.8018 10.0697 57.5986C10.3732 57.3955 10.6093 57.1314 10.7846 56.8199C10.96 56.5085 11.0477 56.1428 11.0477 55.7298C11.0477 55.3167 10.9802 54.9849 10.8453 54.6734C10.7104 54.362 10.4811 54.064 10.1574 53.7932C9.83363 53.5223 9.41547 53.2515 8.89613 53.0009C8.3768 52.7436 7.73606 52.4795 6.97392 52.2087L5.6857 51.7347C5.11915 51.5383 4.54586 51.2742 3.97257 50.9424C3.39928 50.6107 2.8732 50.2044 2.40782 49.7372C1.9357 49.2632 1.55126 48.7147 1.24775 48.0714C0.944245 47.4349 0.795863 46.7171 0.795863 45.9114C0.795863 45.1056 0.957734 44.3201 1.28147 43.6023C1.60522 42.8846 2.06385 42.2616 2.65737 41.7199C3.2509 41.1782 3.96583 40.7584 4.79541 40.4537C5.625 40.149 6.54901 40 7.5607 40C8.57239 40 9.53012 40.1422 10.299 40.4266C11.0679 40.711 11.7221 41.0766 12.2617 41.5168C12.8013 41.9569 13.2329 42.4444 13.5634 42.9726C13.8939 43.5008 14.1367 44.0018 14.2986 44.4758L10.8116 45.9452C10.616 45.3561 10.2585 44.8279 9.73921 44.354C9.21987 43.88 8.51169 43.6497 7.61466 43.6497C6.71763 43.6497 6.04316 43.8529 5.47662 44.2524C4.91007 44.6519 4.6268 45.1801 4.6268 45.8233C4.6268 46.4666 4.90333 46.988 5.44964 47.4281C5.99595 47.8683 6.86601 48.2949 8.0598 48.7079L9.375 49.148C10.2181 49.4392 10.9802 49.7778 11.6749 50.1637C12.3696 50.5497 12.9631 51.0034 13.4622 51.5315C13.9613 52.0597 14.339 52.6624 14.6021 53.3395C14.8651 54.0166 15 54.7953 15 55.6756C15 56.7725 14.7774 57.7205 14.339 58.5128C13.9006 59.305 13.3408 59.9618 12.6529 60.4697C11.9717 60.9775 11.196 61.3635 10.3395 61.6208C9.48291 61.8781 8.63984 62 7.817 62V61.9932Z" fill="white"/>
<path d="M100.431 61.8283V53.1893C103.294 50.3812 105.942 47.7652 108.374 45.347C109.394 44.33 110.437 43.2903 111.509 42.2225C112.575 41.1602 113.573 40.1658 114.497 39.2449C115.421 38.3239 116.243 37.4933 116.974 36.7419C117.706 35.9904 118.261 35.3971 118.652 34.9621C119.429 34.0411 120.121 33.2219 120.727 32.493C121.334 31.7641 121.822 31.0522 122.184 30.3516C122.547 29.651 122.825 28.9504 123.023 28.2441C123.216 27.5435 123.313 26.7807 123.313 25.9558C123.313 24.3568 122.683 22.9669 121.419 21.7804C120.155 20.5939 118.431 20.0006 116.248 20.0006C114.066 20.0006 112.359 20.6165 111.146 21.8538C109.933 23.0912 109.105 24.4811 108.669 26.0293L100 22.4697C100.391 21.1645 101.02 19.8198 101.894 18.4412C102.767 17.0626 103.884 15.8252 105.244 14.7404C106.605 13.6499 108.221 12.7572 110.092 12.0509C111.962 11.3503 114.06 11 116.396 11C118.919 11 121.204 11.3786 123.245 12.1244C125.286 12.8758 127.009 13.9042 128.415 15.2093C129.821 16.5145 130.915 18.0513 131.692 19.8198C132.469 21.5883 132.86 23.4867 132.86 25.5208C132.86 28.617 132.094 31.4647 130.564 34.0524C129.033 36.6402 127.173 39.0528 124.991 41.2789L118.726 47.5223C117.076 49.1664 115.205 51.0084 113.113 53.0424L113.402 53.4775H133.586V61.8283H100.431Z" fill="#163175"/>
<path d="M318.416 61.908C316.409 61.908 314.492 61.6255 312.656 61.0605C310.819 60.4955 309.141 59.6479 307.616 58.5179C306.09 57.3879 304.758 56.0093 303.624 54.3764C302.49 52.7435 301.595 50.8451 300.943 48.6698L309.254 45.4097C309.866 47.7601 310.932 49.7038 312.463 51.2462C313.988 52.7887 315.995 53.5628 318.484 53.5628C319.402 53.5628 320.281 53.4441 321.131 53.2068C321.982 52.9695 322.747 52.6192 323.422 52.1616C324.096 51.7039 324.629 51.1276 325.026 50.4326C325.417 49.7377 325.616 48.9353 325.616 48.02C325.616 47.1047 325.463 46.3702 325.157 45.6696C324.85 44.9746 324.34 44.3249 323.62 43.7147C322.9 43.1044 321.965 42.5168 320.808 41.9518C319.652 41.3868 318.223 40.7992 316.522 40.189L313.642 39.1437C312.378 38.7087 311.102 38.1211 309.815 37.3809C308.528 36.6407 307.36 35.748 306.317 34.7084C305.274 33.6688 304.407 32.4371 303.732 31.0245C303.057 29.612 302.717 28.013 302.717 26.2332C302.717 24.4535 303.074 22.7019 303.794 21.1142C304.514 19.5266 305.541 18.1366 306.867 16.9388C308.199 15.741 309.787 14.8087 311.646 14.1364C313.5 13.464 315.564 13.125 317.832 13.125C320.1 13.125 322.226 13.4414 323.949 14.0686C325.673 14.7014 327.135 15.5037 328.331 16.4812C329.533 17.4586 330.503 18.5378 331.246 19.7074C331.988 20.8826 332.533 21.99 332.884 23.0353L325.094 26.2954C324.658 24.9902 323.864 23.815 322.707 22.7754C321.551 21.7301 319.969 21.2103 317.962 21.2103C315.955 21.2103 314.453 21.6567 313.183 22.5494C311.919 23.4421 311.284 24.606 311.284 26.0355C311.284 27.465 311.896 28.6119 313.115 29.5894C314.334 30.5669 316.278 31.5104 318.937 32.4258L321.88 33.4032C323.756 34.053 325.468 34.8044 327.016 35.652C328.564 36.4995 329.896 37.5108 331.007 38.6861C332.119 39.8613 332.969 41.1947 333.559 42.6976C334.148 44.1949 334.443 45.9238 334.443 47.8788C334.443 50.314 333.95 52.4102 332.969 54.173C331.988 55.9358 330.735 57.3823 329.205 58.5123C327.679 59.6423 325.956 60.4898 324.034 61.0548C322.112 61.6198 320.241 61.9023 318.404 61.9023L318.416 61.908Z" fill="white"/>
<path d="M275.096 22.5208V33.3464H293.873V41.6916H275.096V52.5172H295.971V60.8624H266.263V14.1699H295.971V22.5151H275.096V22.5208Z" fill="white"/>
<path d="M248.007 14.1699H256.84V60.8624H248.007V14.1699Z" fill="white"/>
<path d="M219.808 60.8626V22.521H206.723V14.1758H241.731V22.521H228.646V60.8682H219.814L219.808 60.8626Z" fill="white"/>
<path d="M191.603 14.1699H200.435V60.8624H191.603V14.1699Z" fill="white"/>
<path d="M184.539 53.365C182.225 56.1449 179.498 58.2693 176.358 59.7214C173.217 61.1791 169.707 61.908 165.824 61.908C162.331 61.908 159.094 61.2752 156.106 60.0152C153.119 58.7552 150.533 57.0376 148.351 54.8623C146.168 52.687 144.445 50.1106 143.18 47.133C141.916 44.1554 141.281 40.9518 141.281 37.5165C141.281 34.0812 141.91 30.8776 143.18 27.9C144.445 24.9224 146.168 22.346 148.351 20.1707C150.533 17.9954 153.119 16.2778 156.106 15.0178C159.094 13.7578 162.331 13.125 165.824 13.125C169.577 13.125 172.877 13.7748 175.74 15.0799C178.597 16.3851 181.137 18.2779 183.365 20.7526L177.151 26.753C175.757 25.1428 174.152 23.8602 172.344 22.9053C170.535 21.9505 168.386 21.4702 165.898 21.4702C163.715 21.4702 161.668 21.8488 159.746 22.6115C157.824 23.3743 156.158 24.4478 154.74 25.8377C153.323 27.2277 152.2 28.9114 151.373 30.8889C150.545 32.8665 150.131 35.0756 150.131 37.5052C150.131 39.9347 150.545 42.1439 151.373 44.1271C152.2 46.1046 153.323 47.7884 154.74 49.1783C156.158 50.5682 157.824 51.6474 159.746 52.4045C161.662 53.1673 163.715 53.5458 165.898 53.5458C168.517 53.5458 170.836 53.0147 172.865 51.9469C174.895 50.8846 176.692 49.3704 178.262 47.4155L184.544 53.3481L184.539 53.365Z" fill="white"/>
</svg>
