<svg width="30" height="30" viewBox="0 0 30 30" fill="none" xmlns="http://www.w3.org/2000/svg">
<path d="M28.3333 14.7167C27.8913 14.7167 27.4674 14.8923 27.1548 15.2048C26.8423 15.5174 26.6667 15.9413 26.6667 16.3833V25.6667C26.6667 25.9319 26.5613 26.1862 26.3738 26.3738C26.1862 26.5613 25.9319 26.6667 25.6667 26.6667H4.33333C4.06812 26.6667 3.81376 26.5613 3.62623 26.3738C3.43869 26.1862 3.33333 25.9319 3.33333 25.6667V4.33333C3.33333 4.06812 3.43869 3.81376 3.62623 3.62623C3.81376 3.43869 4.06812 3.33333 4.33333 3.33333H20.2833C20.7254 3.33333 21.1493 3.15774 21.4618 2.84518C21.7744 2.53262 21.95 2.10869 21.95 1.66667C21.95 1.22464 21.7744 0.800716 21.4618 0.488155C21.1493 0.175595 20.7254 0 20.2833 0H4.33333C3.18541 0.0043898 2.08576 0.462346 1.27405 1.27405C0.462346 2.08576 0.0043898 3.18541 0 4.33333V25.6667C0.0043898 26.8146 0.462346 27.9142 1.27405 28.7259C2.08576 29.5377 3.18541 29.9956 4.33333 30H25.6667C26.8146 29.9956 27.9142 29.5377 28.7259 28.7259C29.5377 27.9142 29.9956 26.8146 30 25.6667V16.3833C30 15.9413 29.8244 15.5174 29.5118 15.2048C29.1993 14.8923 28.7754 14.7167 28.3333 14.7167V14.7167Z" fill="#C9D6DF"/>
<path d="M11.8665 13.3335C11.5538 13.0522 11.1462 12.8996 10.7256 12.9063C10.3051 12.9129 9.90256 13.0784 9.59887 13.3694C9.29518 13.6605 9.11277 14.0556 9.08822 14.4755C9.06368 14.8954 9.19881 15.3091 9.46653 15.6335L13.1665 19.5168C13.3214 19.6793 13.5076 19.8089 13.7138 19.8976C13.92 19.9864 14.142 20.0326 14.3665 20.0335C14.5898 20.0348 14.8111 19.9912 15.0173 19.9053C15.2234 19.8194 15.4102 19.693 15.5665 19.5335L26.8665 7.86682C27.0197 7.70924 27.1404 7.52302 27.2216 7.3188C27.3029 7.11458 27.3431 6.89635 27.34 6.67659C27.3369 6.45682 27.2906 6.23982 27.2036 6.03797C27.1166 5.83611 26.9908 5.65337 26.8332 5.50016C26.6756 5.34695 26.4894 5.22628 26.2852 5.14504C26.0809 5.0638 25.8627 5.02358 25.643 5.02667C25.4232 5.02977 25.2062 5.07612 25.0043 5.16308C24.8025 5.25004 24.6197 5.37591 24.4665 5.53349L14.3832 15.9668L11.8665 13.3335Z" fill="#C9D6DF"/>
</svg>
