<svg width="40" height="40" viewBox="0 0 40 40" fill="none" xmlns="http://www.w3.org/2000/svg">
<path d="M23.9911 19.9976L36.1627 7.85259C36.6957 7.31951 36.9952 6.59648 36.9952 5.84258C36.9952 5.08868 36.6957 4.36566 36.1627 3.83257C35.6297 3.29949 34.9068 3 34.153 3C33.3992 3 32.6763 3.29949 32.1433 3.83257L20 16.0059L7.85674 3.83257C7.32372 3.29949 6.6008 3 5.84701 3C5.09322 3 4.3703 3.29949 3.83729 3.83257C3.30427 4.36566 3.00483 5.08868 3.00483 5.84258C3.00483 6.59648 3.30427 7.31951 3.83729 7.85259L16.0089 19.9976L3.83729 32.1426C3.57198 32.4058 3.3614 32.7189 3.21769 33.0638C3.07399 33.4088 3 33.7789 3 34.1526C3 34.5263 3.07399 34.8963 3.21769 35.2413C3.3614 35.5863 3.57198 35.8994 3.83729 36.1626C4.10043 36.4279 4.41349 36.6386 4.75843 36.7823C5.10336 36.926 5.47334 37 5.84701 37C6.22068 37 6.59066 36.926 6.93559 36.7823C7.28053 36.6386 7.59359 36.4279 7.85674 36.1626L20 23.9893L32.1433 36.1626C32.4064 36.4279 32.7195 36.6386 33.0644 36.7823C33.4093 36.926 33.7793 37 34.153 37C34.5267 37 34.8966 36.926 35.2416 36.7823C35.5865 36.6386 35.8996 36.4279 36.1627 36.1626C36.428 35.8994 36.6386 35.5863 36.7823 35.2413C36.926 34.8963 37 34.5263 37 34.1526C37 33.7789 36.926 33.4088 36.7823 33.0638C36.6386 32.7189 36.428 32.4058 36.1627 32.1426L23.9911 19.9976Z" fill="#C9D6DF"/>
</svg>
